<?xml version="1.0" encoding="UTF-8" standalone="no"?>
<!DOCTYPE svg PUBLIC "-//W3C//DTD SVG 1.1//EN" "http://www.w3.org/Graphics/SVG/1.1/DTD/svg11.dtd">
<svg width="100%" height="100%" viewBox="0 0 23 27" version="1.1" xmlns="http://www.w3.org/2000/svg" xmlns:xlink="http://www.w3.org/1999/xlink" xml:space="preserve" xmlns:serif="http://www.serif.com/" style="fill-rule:evenodd;clip-rule:evenodd;stroke-linejoin:round;stroke-miterlimit:2;">
    <g transform="matrix(1,0,0,1,-150.166,-73.0142)">
        <g transform="matrix(0.152488,0,0,0.122693,128.007,32.1598)">
            <path d="M193.527,496.559C169.709,489.001 151.337,470.684 145.325,447.951L145.317,447.951L145.317,423.881L290.499,423.881L290.499,447.951L290.497,447.951C290.493,447.951 290.49,447.954 290.488,447.959C284.474,470.688 266.104,489.002 242.288,496.559L264.704,547.385L260.655,550.143L237.609,497.886C231.331,499.46 224.726,500.301 217.908,500.301C211.09,500.301 204.484,499.46 198.207,497.886L175.16,550.143L171.111,547.385L193.527,496.559ZM220.235,332.98C220.235,332.98 228.189,346.516 227.724,364.178C227.465,373.989 223.754,380.519 218.715,391.404C213.098,403.537 217.226,412.986 217.226,412.986C217.226,412.986 207.878,407.115 208.075,391.145C208.257,376.445 214.322,373.069 218.715,360.08C223.35,346.378 220.235,332.98 220.235,332.98ZM236.993,359.231C236.993,359.231 243.041,368.326 242.687,380.193C242.491,386.784 239.669,391.172 235.837,398.485C231.565,406.637 234.704,412.986 234.704,412.986C234.704,412.986 227.595,409.041 227.746,398.312C227.884,388.434 232.496,386.166 235.837,377.44C239.362,368.233 236.993,359.231 236.993,359.231ZM202.363,332.98C202.363,332.98 208.411,342.075 208.057,353.942C207.861,360.533 205.039,364.92 201.207,372.234C196.935,380.386 200.074,386.735 200.074,386.735C200.074,386.735 192.965,382.79 193.115,372.06C193.254,362.183 197.866,359.915 201.207,351.188C204.731,341.982 202.363,332.98 202.363,332.98Z" style="fill:white;"/>
        </g>
    </g>
</svg>
