<?xml version="1.0" encoding="UTF-8"?>
<svg id="Layer_1" xmlns="http://www.w3.org/2000/svg" viewBox="0 0 25 30.08">
  <defs>
    <style>
      .cls-1 {
        fill: #103469;
        fill-rule: evenodd;
      }
    </style>
  </defs>
  <path class="cls-1" d="M8.3,22.66C4.2,21.61,1.04,15.74,0,12.59h0,25s0,0,0,0c0,0,0,0,0,0-1.04,3.15-4.2,9.02-8.3,10.07l3.86,7.04-.7.38-3.97-7.24c-1.08.22-2.22.33-3.39.33s-2.31-.12-3.39-.33l-3.97,7.24-.7-.38,3.86-7.04ZM12.9,0s1.37,1.88,1.29,4.32c-.04,1.36-.68,2.26-1.55,3.77-.97,1.68-.26,2.99-.26,2.99,0,0-1.61-.81-1.58-3.03.03-2.04,1.08-2.5,1.83-4.3.8-1.9.26-3.75.26-3.75ZM15.79,3.64s1.04,1.26.98,2.9c-.03.91-.52,1.52-1.18,2.53-.74,1.13-.2,2.01-.2,2.01,0,0-1.22-.55-1.2-2.03.02-1.37.82-1.68,1.39-2.89.61-1.28.2-2.52.2-2.52ZM9.82,0s1.04,1.26.98,2.9c-.03.91-.52,1.52-1.18,2.53-.74,1.13-.2,2.01-.2,2.01,0,0-1.22-.55-1.2-2.03.02-1.37.82-1.68,1.39-2.89.61-1.28.2-2.52.2-2.52Z"/>
</svg>