<svg width="38" height="15" viewBox="0 0 38 15" fill="none" xmlns="http://www.w3.org/2000/svg">
<g clip-path="url(#clip0_76_205)">
<path d="M37.2876 13.617C37.0569 13.9663 36.4337 13.7556 36.5891 13.3127C39.8371 4.08059 23.4114 9.51773 20.1759 10.0856C17.0792 10.6292 14.0572 10.6406 11.1851 9.60059C10.1501 11.1842 8.70403 12.5213 7.14396 13.5184C6.19741 14.1234 4.33886 15.3892 3.24377 14.402C2.18945 13.452 3.49181 11.9677 4.13298 11.2142C5.09956 10.0784 6.31418 9.17059 7.6504 8.55202C4.05352 8.32345 0.905731 4.60345 0.183041 1.20773C0.120857 0.917019 0.318466 0.549879 0.647339 0.577736C3.78268 0.846307 6.98642 2.76202 8.53061 5.66845C8.49951 3.74059 9.7853 1.71773 10.899 0.22559C11.1098 -0.057267 11.4801 -0.0936955 11.6853 0.22559C13.3027 2.74559 13.2288 6.14559 11.4753 8.52416C11.5126 8.57631 11.5416 8.63416 11.5596 8.69559C18.7201 10.8256 25.2617 5.94845 32.5376 6.58059C35.7814 6.86202 39.6112 10.092 37.2876 13.617ZM9.9677 7.81702C10.0237 7.91845 10.0092 8.02345 9.96079 8.10631C10.099 8.16774 10.2372 8.23131 10.3746 8.28702C12.0156 6.29774 12.3935 3.62273 11.2376 1.30702C9.83573 3.24773 8.66257 5.43917 9.9677 7.81702ZM4.05766 5.91131C5.40908 7.03917 6.82752 7.41845 8.40763 7.82488C7.00854 4.6163 4.69193 2.21917 1.28782 1.65702C1.77283 3.33988 2.71177 4.78845 4.05766 5.91131ZM10.1211 9.26559C10.0858 9.22559 10.0527 9.18273 10.0306 9.13345C9.73555 8.99416 9.44123 8.84631 9.14967 8.68131C8.00621 9.20488 6.95326 9.81274 6.00809 10.687C5.40908 11.2406 2.93908 13.7256 4.98763 13.4635C6.14007 13.3156 7.67458 11.887 8.4781 11.1349C9.08956 10.5627 9.61395 9.92417 10.1211 9.26559Z" fill="white"/>
</g>
<defs>
<clipPath id="clip0_76_205">
<rect width="38" height="15" fill="white" transform="matrix(-1 0 0 1 38 0)"/>
</clipPath>
</defs>
</svg>
