<?xml version="1.0" encoding="UTF-8" standalone="no"?>
<!DOCTYPE svg PUBLIC "-//W3C//DTD SVG 1.1//EN" "http://www.w3.org/Graphics/SVG/1.1/DTD/svg11.dtd">
<svg width="100%" height="100%" viewBox="0 0 30 15" version="1.1" xmlns="http://www.w3.org/2000/svg" xmlns:xlink="http://www.w3.org/1999/xlink" xml:space="preserve" xmlns:serif="http://www.serif.com/" style="fill-rule:evenodd;clip-rule:evenodd;stroke-linejoin:round;stroke-miterlimit:2;">
    <g transform="matrix(1,0,0,1,-259.735,-79.1351)">
        <g id="Gym" transform="matrix(0.124651,0,0,0.089401,242.598,59.3222)">
            <path d="M146.478,317.104C146.317,317.119 146.155,317.127 145.991,317.127C141.293,317.127 137.478,310.486 137.478,302.305C137.478,294.125 141.293,287.483 145.991,287.483C146.155,287.483 146.317,287.491 146.478,287.507L146.478,244.074L163.504,244.074L163.504,221.619L188.473,221.619L188.473,287.483L321.918,287.483L321.918,221.619L346.887,221.619L346.887,244.074L363.913,244.074L363.913,287.483C368.612,287.483 372.427,294.125 372.427,302.305C372.427,310.486 368.612,317.127 363.913,317.127L363.913,360.537L346.887,360.537L346.887,382.991L321.918,382.991L321.918,317.127L188.473,317.127L188.473,382.991L163.504,382.991L163.504,360.537L146.478,360.537L146.478,317.104Z" style="fill:white;"/>
        </g>
    </g>
</svg>
