<?xml version="1.0" encoding="UTF-8" standalone="no"?>
<!DOCTYPE svg PUBLIC "-//W3C//DTD SVG 1.1//EN" "http://www.w3.org/Graphics/SVG/1.1/DTD/svg11.dtd">
<svg width="100%" height="100%" viewBox="0 0 21 27" version="1.1" xmlns="http://www.w3.org/2000/svg" xmlns:xlink="http://www.w3.org/1999/xlink" xml:space="preserve" xmlns:serif="http://www.serif.com/" style="fill-rule:evenodd;clip-rule:evenodd;stroke-linejoin:round;stroke-miterlimit:2;">
    <g transform="matrix(1,0,0,1,-226.14,-73.0263)">
        <g id="Park" transform="matrix(0.0613613,0,0,0.141763,179.451,27.1417)">
            <path d="M956.18,432.084L910.43,427.412L910.43,511.536L875.721,511.536L875.721,427.412L760.895,439.139L809.175,407.583L788.417,407.583L828.527,381.82L805.96,381.82L893.076,323.671L980.191,381.82L957.624,381.82L987.908,401.272L1006.59,388.803L1063.5,426.792L1048.76,426.792L1074.96,443.623L1061.4,443.623L1092.94,464.238L1017.93,456.577L1017.93,511.536L995.252,511.536L995.252,456.577L920.235,464.238L951.777,443.623L938.216,443.623L956.18,432.084ZM978.454,407.583L976.977,407.583L977.723,408.071L978.454,407.583Z" style="fill:white;"/>
        </g>
    </g>
</svg>
