<?xml version="1.0" encoding="UTF-8" standalone="no"?><!DOCTYPE svg PUBLIC "-//W3C//DTD SVG 1.1//EN" "http://www.w3.org/Graphics/SVG/1.1/DTD/svg11.dtd"><svg width="100%" height="100%" viewBox="0 0 56 56" version="1.1" xmlns="http://www.w3.org/2000/svg" xmlns:xlink="http://www.w3.org/1999/xlink" xml:space="preserve" xmlns:serif="http://www.serif.com/" style="fill-rule:evenodd;clip-rule:evenodd;stroke-linejoin:round;stroke-miterlimit:2;"><g id="Pet"><g><path d="M28.019,26.294c0.074,-0.003 2.823,-0.118 4.327,2.628c1.525,2.785 1.481,2.609 3.093,4.225c1.612,1.616 2.085,3.004 0.671,4.76c-2.229,2.768 -4.944,0.461 -8.091,0.485c-3.147,-0.024 -5.862,2.283 -8.092,-0.485c-1.414,-1.756 -0.94,-3.144 0.672,-4.76c1.612,-1.616 1.568,-1.44 3.092,-4.225c1.504,-2.746 4.253,-2.631 4.328,-2.628Z" style="fill:#fff;"/><path d="M22.757,16.764c1.881,-0.315 3.766,1.564 4.206,4.194c0.439,2.629 -0.731,5.019 -2.613,5.334c-1.881,0.315 -3.766,-1.565 -4.205,-4.194c-0.44,-2.629 0.73,-5.019 2.612,-5.334Z" style="fill:#fff;"/><path d="M17.343,24.307c1.495,-0.457 3.228,0.868 3.867,2.958c0.64,2.089 -0.056,4.157 -1.551,4.615c-1.495,0.457 -3.228,-0.868 -3.868,-2.958c-0.639,-2.089 0.056,-4.158 1.552,-4.615Z" style="fill:#fff;"/><path d="M38.657,24.307c-1.495,-0.457 -3.228,0.868 -3.867,2.958c-0.64,2.089 0.056,4.157 1.551,4.615c1.495,0.457 3.228,-0.868 3.868,-2.958c0.639,-2.089 -0.056,-4.158 -1.552,-4.615Z" style="fill:#fff;"/><path d="M33.01,16.764c-1.882,-0.315 -3.767,1.564 -4.206,4.194c-0.44,2.629 0.73,5.019 2.612,5.334c1.881,0.315 3.766,-1.565 4.206,-4.194c0.44,-2.629 -0.731,-5.019 -2.612,-5.334Z" style="fill:#fff;"/></g><path d="M28,0c15.454,0 28,12.546 28,28c0,15.454 -12.546,28 -28,28c-15.454,0 -28,-12.546 -28,-28c0,-15.454 12.546,-28 28,-28Zm0,2.167c-14.258,-0 -25.833,11.575 -25.833,25.833c-0,14.258 11.575,25.833 25.833,25.833c14.258,0 25.833,-11.575 25.833,-25.833c0,-14.258 -11.575,-25.833 -25.833,-25.833Z" style="fill:#fff;"/></g></svg>