<?xml version="1.0" encoding="UTF-8" standalone="no"?>
<!DOCTYPE svg PUBLIC "-//W3C//DTD SVG 1.1//EN" "http://www.w3.org/Graphics/SVG/1.1/DTD/svg11.dtd">
<svg width="100%" height="100%" viewBox="0 0 30 27" version="1.1" xmlns="http://www.w3.org/2000/svg" xmlns:xlink="http://www.w3.org/1999/xlink" xml:space="preserve" xmlns:serif="http://www.serif.com/" style="fill-rule:evenodd;clip-rule:evenodd;stroke-linejoin:round;stroke-miterlimit:2;">
    <g transform="matrix(1,0,0,1,-75.874,-73.0263)">
        <g transform="matrix(0.0816278,0.0133884,-0.0270774,0.165088,53.8272,51.7301)">
            <path d="M385.322,106.864L385.322,259.072L356.028,259.072L356.028,109.239L324.366,111.807L321.422,102.932L638.644,77.206L641.588,86.081L608.612,88.755L705.412,230.737L677.654,235.364L579.319,91.131L517.419,96.151L552.714,202.552L570.617,201.1L575.602,216.128L470.911,224.618L465.926,209.59L484.056,208.12L448.761,101.719L385.322,106.864ZM504.531,97.196L461.649,100.674L496.944,207.075L539.826,203.597L504.531,97.196Z" style="fill:white;"/>
        </g>
    </g>
</svg>
