<?xml version="1.0" encoding="UTF-8"?>
<svg id="Layer_1" xmlns="http://www.w3.org/2000/svg" viewBox="0 0 25 22.73">
  <defs>
    <style>
      .cls-1 {
        fill: #103469;
        fill-rule: evenodd;
      }
    </style>
  </defs>
  <path class="cls-1" d="M5.56,1.28l-3.52,21.45-2.04-.33L3.46,1.28H1.2s0-1.28,0-1.28h22.7s0,1.28,0,1.28h-2.36s3.46,21.11,3.46,21.11l-2.04.33L19.44,1.28h-4.43v15.4s1.28,0,1.28,0v2.17s-7.49,0-7.49,0v-2.17s1.3,0,1.3,0V1.28s-4.54,0-4.54,0ZM14.09,1.28h-3.07s0,15.4,0,15.4h3.07s0-15.4,0-15.4Z"/>
</svg>