<?xml version="1.0" encoding="UTF-8"?>
<svg id="Layer_1" xmlns="http://www.w3.org/2000/svg" viewBox="0 0 25 21.18">
  <defs>
    <style>
      .cls-1 {
        fill: #103469;
        fill-rule: evenodd;
      }
    </style>
  </defs>
  <g id="Pool">
    <path class="cls-1" d="M25,15.97v5.21H0v-5.21c.44.22.97.34,1.54.34.91,0,1.72-.32,2.22-.81.14-.14.32-.22.52-.22s.38.08.52.22c.5.49,1.31.81,2.22.81s1.72-.32,2.22-.81c.14-.14.32-.22.52-.22s.38.08.52.22c.5.49,1.31.81,2.22.81s1.72-.32,2.22-.81c.14-.14.32-.22.52-.22s.38.08.52.22c.5.49,1.31.81,2.22.81s1.72-.32,2.22-.81c.14-.14.32-.22.52-.22s.38.08.52.22c.5.49,1.31.81,2.22.81.57,0,1.1-.13,1.54-.34ZM9.09,12.83c.01.85.02,1.39.02,1.39,0,.55-.43,1.01-.99,1.02-.55,0-1.01-.43-1.02-.99,0,0-.13-8.61-.13-11.03,0-.85.22-1.79.88-2.42.45-.43,1.12-.76,2.14-.76,1.37,0,2.08.83,2.44,1.68.3.72.31,1.43.31,1.43,0,.55-.44,1.01-.99,1.02-.55,0-1.01-.44-1.02-.99,0,0,0-.34-.15-.69-.09-.21-.24-.44-.58-.44s-.6.05-.75.2c-.26.25-.26.64-.26.97,0,.68.01,1.84.02,3.16h6.8c-.01-1.34-.03-2.52-.03-3.21,0-.85.22-1.79.88-2.42.45-.43,1.12-.76,2.14-.76,1.37,0,2.08.83,2.44,1.68.3.72.31,1.43.31,1.43,0,.55-.44,1.01-.99,1.02-.55,0-1.01-.44-1.02-.99,0,0,0-.34-.15-.69-.09-.21-.24-.44-.58-.44s-.6.05-.75.2c-.26.25-.26.64-.26.97,0,2.41.13,11,.13,11,0,.55-.43,1.01-.99,1.02-.55,0-1.01-.43-1.02-.99,0,0,0-.54-.02-1.38h-6.8ZM9.03,8.16c.01,1,.03,2,.04,2.9h6.8c-.01-.9-.03-1.9-.04-2.9h-6.8Z"/>
  </g>
</svg>