<?xml version="1.0" encoding="UTF-8" standalone="no"?>
<!DOCTYPE svg PUBLIC "-//W3C//DTD SVG 1.1//EN" "http://www.w3.org/Graphics/SVG/1.1/DTD/svg11.dtd">
<svg width="100%" height="100%" viewBox="0 0 30 25" version="1.1" xmlns="http://www.w3.org/2000/svg" xmlns:xlink="http://www.w3.org/1999/xlink" xml:space="preserve" xmlns:serif="http://www.serif.com/" style="fill-rule:evenodd;clip-rule:evenodd;stroke-linejoin:round;stroke-miterlimit:2;">
    <g transform="matrix(1,0,0,1,-184.747,-74.8574)">
        <g id="Pool" transform="matrix(0.146949,0,0,0.146949,160.835,17.326)">
            <path d="M362.021,518.857L362.021,560.363L162.723,560.363L162.723,518.857C166.227,520.577 170.462,521.583 175.023,521.583C182.294,521.583 188.74,519.025 192.71,515.093C193.798,513.97 195.296,513.336 196.86,513.336C198.424,513.336 199.921,513.97 201.01,515.094C204.98,519.025 211.426,521.583 218.697,521.583C225.969,521.583 232.415,519.025 236.385,515.093C237.473,513.97 238.971,513.336 240.535,513.336C242.099,513.336 243.596,513.97 244.685,515.094C248.655,519.025 255.101,521.583 262.372,521.583C269.644,521.583 276.09,519.025 280.059,515.093C281.148,513.97 282.645,513.336 284.21,513.336C285.774,513.336 287.271,513.97 288.36,515.094C292.33,519.025 298.776,521.583 306.047,521.583C313.318,521.583 319.764,519.025 323.734,515.093C324.823,513.97 326.32,513.336 327.885,513.336C329.449,513.336 330.946,513.97 332.035,515.094C336.005,519.025 342.451,521.583 349.722,521.583C354.282,521.583 358.518,520.577 362.021,518.857ZM235.174,493.784C235.272,500.572 235.337,504.903 235.337,504.903C235.404,509.317 231.873,512.956 227.459,513.022C223.044,513.089 219.406,509.558 219.339,505.143C219.339,505.143 218.307,436.543 218.307,417.248C218.307,410.437 220.053,402.97 225.305,397.952C228.924,394.494 234.257,391.899 242.371,391.899C253.289,391.899 258.969,398.498 261.795,405.275C264.176,410.983 264.234,416.695 264.234,416.695C264.297,421.11 260.764,424.746 256.349,424.809C251.935,424.872 248.299,421.339 248.236,416.924C248.236,416.924 248.174,414.181 247.028,411.434C246.327,409.754 245.078,407.899 242.371,407.899C239.58,407.899 237.603,408.331 236.358,409.52C234.312,411.475 234.307,414.595 234.307,417.248C234.307,422.638 234.387,431.885 234.504,442.406L288.711,442.406C288.592,431.723 288.51,422.316 288.51,416.856C288.51,410.044 290.256,402.577 295.508,397.56C299.127,394.102 304.46,391.507 312.574,391.507C323.492,391.507 329.172,398.106 331.998,404.883C334.379,410.59 334.437,416.303 334.437,416.303C334.5,420.718 330.967,424.353 326.552,424.416C322.137,424.48 318.502,420.946 318.439,416.532C318.439,416.532 318.377,413.789 317.231,411.042C316.53,409.362 315.281,407.507 312.574,407.507C309.783,407.507 307.806,407.939 306.561,409.128C304.515,411.083 304.51,414.203 304.51,416.856C304.51,436.098 305.54,504.51 305.54,504.51C305.607,508.925 302.076,512.563 297.662,512.63C293.247,512.696 289.609,509.166 289.542,504.751C289.542,504.751 289.478,500.486 289.382,493.784L235.174,493.784ZM234.671,456.525C234.77,464.47 234.877,472.495 234.976,479.665L289.183,479.665C289.084,472.505 288.977,464.48 288.878,456.525L234.671,456.525Z" style="fill:white;"/>
        </g>
    </g>
</svg>
