<?xml version="1.0" encoding="UTF-8" standalone="no"?><!DOCTYPE svg PUBLIC "-//W3C//DTD SVG 1.1//EN" "http://www.w3.org/Graphics/SVG/1.1/DTD/svg11.dtd"><svg width="100%" height="100%" viewBox="0 0 56 56" version="1.1" xmlns="http://www.w3.org/2000/svg" xmlns:xlink="http://www.w3.org/1999/xlink" xml:space="preserve" xmlns:serif="http://www.serif.com/" style="fill-rule:evenodd;clip-rule:evenodd;stroke-linejoin:round;stroke-miterlimit:2;"><g id="Security"><path d="M16.152,37.184l-0,4.343c-0,0.34 -0.135,0.666 -0.376,0.907c-0.24,0.24 -0.567,0.375 -0.907,0.375l-2.044,0l0,-13.714l2.044,0c0.34,0 0.667,0.135 0.907,0.376c0.241,0.24 0.376,0.566 0.376,0.907l-0,4.537l3.32,-0.537c0.16,-1.265 1.241,-2.245 2.549,-2.245c0.274,0 0.538,0.043 0.785,0.123l3.579,-6.199l-8.456,-4.882c-0.198,-0.115 -0.266,-0.368 -0.151,-0.566l0.134,-0.233c0.127,-0.219 0.406,-0.294 0.625,-0.168l15.457,8.925c0.132,0.076 0.287,0.101 0.434,0.069l5.659,-1.219l-2.118,3.669c-0.125,0.217 -0.332,0.376 -0.575,0.441c-0.242,0.065 -0.501,0.031 -0.718,-0.095l-8.352,-4.822l-3.869,6.701c0.088,0.259 0.136,0.537 0.136,0.826c0,1.418 -1.151,2.57 -2.57,2.57c-0.705,-0 -1.345,-0.285 -1.81,-0.747l-4.059,0.658Zm18.601,-8.96c-0.148,0.036 -0.304,0.013 -0.436,-0.063l-15.249,-8.804c-0.116,-0.067 -0.201,-0.178 -0.236,-0.308c-0.035,-0.129 -0.017,-0.268 0.05,-0.384l2.984,-5.168c0.081,-0.141 0.215,-0.243 0.372,-0.285c0.157,-0.043 0.325,-0.021 0.466,0.061l20.203,11.664c0.123,0.071 0.213,0.188 0.25,0.325c0.036,0.137 0.017,0.283 -0.054,0.406l-0.306,0.53c-0.032,0.056 -0.086,0.096 -0.148,0.111l-7.896,1.915Zm7.531,-0.043c0.505,0.292 0.678,0.937 0.387,1.442l-1.025,1.776c-0.292,0.504 -0.937,0.677 -1.442,0.386l-1.232,-0.711l2.08,-3.604l1.232,0.711Z" style="fill:#fff;"/><path d="M28,0c15.454,0 28,12.546 28,28c0,15.454 -12.546,28 -28,28c-15.454,0 -28,-12.546 -28,-28c0,-15.454 12.546,-28 28,-28Zm0,2.167c-14.258,-0 -25.833,11.575 -25.833,25.833c-0,14.258 11.575,25.833 25.833,25.833c14.258,0 25.833,-11.575 25.833,-25.833c0,-14.258 -11.575,-25.833 -25.833,-25.833Z" style="fill:#fff;"/></g></svg>