<?xml version="1.0" encoding="UTF-8" standalone="no"?><!DOCTYPE svg PUBLIC "-//W3C//DTD SVG 1.1//EN" "http://www.w3.org/Graphics/SVG/1.1/DTD/svg11.dtd"><svg width="100%" height="100%" viewBox="0 0 56 56" version="1.1" xmlns="http://www.w3.org/2000/svg" xmlns:xlink="http://www.w3.org/1999/xlink" xml:space="preserve" xmlns:serif="http://www.serif.com/" style="fill-rule:evenodd;clip-rule:evenodd;stroke-linejoin:round;stroke-miterlimit:2;"><g id="Sound"><path d="M41.096,14.654l-0,26.635c-0,0.468 -0.38,0.847 -0.847,0.847l-2.076,0c-0.467,0 -0.847,-0.379 -0.847,-0.847l0,-26.635c0,-0.468 0.38,-0.847 0.847,-0.847l2.076,-0c0.467,-0 0.847,0.379 0.847,0.847Zm-4.569,-0.405l-0,27.559c-0,0.213 -0.173,0.385 -0.385,0.385l-0.944,0c-0.212,0 -0.385,-0.172 -0.385,-0.385l0,-27.559c0,-0.213 0.173,-0.385 0.385,-0.385l0.944,-0c0.212,-0 0.385,0.172 0.385,0.385Zm-19.599,7.634l0,11.843l-3.29,0c-0.725,0 -1.42,-0.288 -1.933,-0.8c-0.513,-0.513 -0.801,-1.209 -0.801,-1.934l0,-6.375c0,-0.725 0.288,-1.42 0.801,-1.933c0.513,-0.513 1.208,-0.801 1.933,-0.801l3.29,-0Zm5.913,-4.982c0.2,-0.2 0.501,-0.259 0.762,-0.15c0.261,0.108 0.431,0.363 0.431,0.646l0,21.196c0,0.283 -0.17,0.538 -0.431,0.646c-0.261,0.109 -0.562,0.049 -0.762,-0.15l-4.977,-4.953l-0,-12.282l4.977,-4.953Zm2.904,9.104c-0.178,-0.286 -0.091,-0.663 0.195,-0.842c0.286,-0.178 0.663,-0.091 0.842,0.195c1.033,1.654 0.989,3.308 0.007,4.962c-0.172,0.29 -0.548,0.386 -0.837,0.214c-0.29,-0.172 -0.386,-0.547 -0.214,-0.837c0.73,-1.231 0.776,-2.461 0.007,-3.692Zm2.123,-1.408c-0.161,-0.296 -0.052,-0.667 0.243,-0.829c0.296,-0.162 0.668,-0.053 0.83,0.243c1.398,2.559 1.453,5.118 -0.006,7.678c-0.167,0.292 -0.54,0.395 -0.833,0.228c-0.293,-0.167 -0.395,-0.541 -0.228,-0.834c1.232,-2.162 1.176,-4.324 -0.006,-6.486Zm2.02,-1.517c-0.178,-0.287 -0.089,-0.664 0.197,-0.841c0.287,-0.178 0.664,-0.089 0.841,0.197c2.217,3.578 2.399,7.155 -0.012,10.733c-0.189,0.279 -0.569,0.353 -0.849,0.165c-0.279,-0.189 -0.353,-0.569 -0.165,-0.848c2.114,-3.136 1.93,-6.271 -0.012,-9.406Z" style="fill:#fff;"/><path d="M28,0c15.454,0 28,12.546 28,28c-0,15.454 -12.546,28 -28,28c-15.454,0 -28,-12.546 -28,-28c-0,-15.454 12.546,-28 28,-28Zm-0,2.167c-14.258,-0 -25.833,11.575 -25.833,25.833c-0,14.258 11.575,25.833 25.833,25.833c14.258,0 25.833,-11.575 25.833,-25.833c0,-14.258 -11.575,-25.833 -25.833,-25.833Z" style="fill:#fff;"/></g></svg>