<?xml version="1.0" encoding="UTF-8" standalone="no"?><!DOCTYPE svg PUBLIC "-//W3C//DTD SVG 1.1//EN" "http://www.w3.org/Graphics/SVG/1.1/DTD/svg11.dtd"><svg width="100%" height="100%" viewBox="0 0 56 56" version="1.1" xmlns="http://www.w3.org/2000/svg" xmlns:xlink="http://www.w3.org/1999/xlink" xml:space="preserve" xmlns:serif="http://www.serif.com/" style="fill-rule:evenodd;clip-rule:evenodd;stroke-linejoin:round;stroke-miterlimit:2;"><g id="Space"><path id="arrow-left.svg" d="M13.804,23.012c-0.52,0 -0.948,-0.427 -0.948,-0.947l0,-8.041c0,-0.519 0.428,-0.947 0.948,-0.947l8.04,-0c0.246,0.004 0.48,0.104 0.654,0.277c0.367,0.368 0.367,0.973 -0,1.34c-0.174,0.174 -0.408,0.273 -0.654,0.278l-5.753,-0l7.763,7.763c0.368,0.367 0.368,0.972 0,1.34c-0.367,0.368 -0.972,0.368 -1.34,-0l-7.763,-7.763l0,5.753c0,0.52 -0.428,0.947 -0.947,0.947Zm-0,9.976c0.519,-0 0.947,0.427 0.947,0.947l0,5.753l7.763,-7.763c0.368,-0.368 0.973,-0.368 1.34,0c0.368,0.368 0.368,0.973 0,1.34l-7.763,7.763l5.753,0c0.246,0.005 0.48,0.104 0.654,0.278c0.367,0.367 0.367,0.972 -0,1.34c-0.174,0.173 -0.408,0.273 -0.654,0.277l-8.04,0c-0.52,0 -0.948,-0.428 -0.948,-0.947l0,-8.041c0,-0.52 0.428,-0.947 0.948,-0.947Zm28.392,-9.976c-0.519,0 -0.947,-0.427 -0.947,-0.947l-0,-5.753l-7.763,7.763c-0.368,0.368 -0.973,0.368 -1.34,-0c-0.368,-0.368 -0.368,-0.973 -0,-1.34l7.763,-7.763l-5.753,-0c-0.246,-0.005 -0.48,-0.104 -0.654,-0.278c-0.367,-0.367 -0.367,-0.972 0,-1.34c0.174,-0.173 0.408,-0.273 0.654,-0.277l8.04,-0c0.52,-0 0.948,0.428 0.948,0.947l-0,8.041c-0,0.52 -0.428,0.947 -0.948,0.947Zm0,9.976c0.52,-0 0.948,0.427 0.948,0.947l-0,8.041c-0,0.519 -0.428,0.947 -0.948,0.947l-8.04,0c-0.246,-0.004 -0.48,-0.104 -0.654,-0.277c-0.367,-0.368 -0.367,-0.973 0,-1.34c0.174,-0.174 0.408,-0.273 0.654,-0.278l5.753,0l-7.763,-7.763c-0.368,-0.367 -0.368,-0.972 -0,-1.34c0.367,-0.368 0.972,-0.368 1.34,0l7.763,7.763l-0,-5.753c-0,-0.52 0.428,-0.947 0.947,-0.947Z" style="fill:#fff;"/><path d="M28,0c15.454,0 28,12.546 28,28c-0,15.454 -12.546,28 -28,28c-15.454,0 -28,-12.546 -28,-28c-0,-15.454 12.546,-28 28,-28Zm0,2.167c-14.258,-0 -25.833,11.575 -25.833,25.833c-0,14.258 11.575,25.833 25.833,25.833c14.258,0 25.833,-11.575 25.833,-25.833c0,-14.258 -11.575,-25.833 -25.833,-25.833Z" style="fill:#fff;"/></g></svg>