<?xml version="1.0" encoding="UTF-8"?>
<svg id="Layer_1" xmlns="http://www.w3.org/2000/svg" viewBox="0 0 25 27.55">
  <defs>
    <style>
      .cls-1 {
        fill: #103469;
        fill-rule: evenodd;
      }
    </style>
  </defs>
  <g id="terrace">
    <path class="cls-1" d="M8.3,8.82c-.2.74-.96,1.17-1.69.97l-5.59-1.51c-.74-.2-1.17-.96-.97-1.69l8.25,2.23ZM16.55,11.05l8.25,2.23c-.2.74-.96,1.17-1.69.97l-5.59-1.51c-.74-.2-1.17-.96-.97-1.69ZM8.3,8.82l8.25,2.23c-.2.74-.96,1.17-1.69.97l-2.44-.66-4.37,16.18-.72-.19,4.37-16.18-2.44-.66c-.74-.2-1.17-.96-.97-1.69ZM.24,5.88C3.32,1.27,9.21-1.08,14.98.48s9.68,6.55,10.02,12.09L.24,5.88Z"/>
  </g>
</svg>