<?xml version="1.0" encoding="UTF-8" standalone="no"?>
<!DOCTYPE svg PUBLIC "-//W3C//DTD SVG 1.1//EN" "http://www.w3.org/Graphics/SVG/1.1/DTD/svg11.dtd">
<svg width="100%" height="100%" viewBox="0 0 25 27" version="1.1" xmlns="http://www.w3.org/2000/svg" xmlns:xlink="http://www.w3.org/1999/xlink" xml:space="preserve" xmlns:serif="http://www.serif.com/" style="fill-rule:evenodd;clip-rule:evenodd;stroke-linejoin:round;stroke-miterlimit:2;">
    <g transform="matrix(1,0,0,1,-115.685,-73.0263)">
        <g id="terrace" transform="matrix(0.099426,0.02686,-0.02686,0.099426,87.9717,42.8864)">
            <path d="M432.954,272.006C432.954,279.159 427.155,284.958 420.002,284.958L365.636,284.958C358.482,284.958 352.684,279.159 352.684,272.006L432.954,272.006ZM513.224,272.006L593.494,272.006C593.494,279.159 587.695,284.958 580.542,284.958L526.176,284.958C519.023,284.958 513.224,279.159 513.224,272.006ZM432.954,272.006L513.224,272.006C513.224,279.159 507.425,284.958 500.272,284.958L476.585,284.958L476.585,442.372L469.593,442.372L469.593,284.958L445.906,284.958C438.753,284.958 432.954,279.159 432.954,272.006ZM352.684,265.079C369.282,215.708 416.944,180.011 473.089,180.011C529.234,180.011 576.896,215.708 593.494,265.079L352.684,265.079Z" style="fill:white;"/>
        </g>
    </g>
</svg>
